<mxfile host="app.diagrams.net" modified="2023-06-21T14:40:29.222Z" agent="Mozilla/5.0 (Windows NT 10.0; Win64; x64) AppleWebKit/537.36 (KHTML, like Gecko) Chrome/114.0.0.0 Safari/537.36 Edg/114.0.1823.43" etag="a48uiB7fSUl7NdbpV7GM" version="21.5.0" type="github">
  <diagram name="Page-1" id="tcuBk5lwrKn6pOtDavcS">
    <mxGraphModel dx="880" dy="507" grid="1" gridSize="10" guides="1" tooltips="1" connect="1" arrows="1" fold="1" page="1" pageScale="1" pageWidth="1169" pageHeight="827" math="0" shadow="0">
      <root>
        <mxCell id="0" />
        <mxCell id="1" parent="0" />
        <mxCell id="RYXvHmkfxahkaSeMc-fz-11" value="" style="edgeStyle=orthogonalEdgeStyle;rounded=0;orthogonalLoop=1;jettySize=auto;html=1;entryX=0.5;entryY=0;entryDx=0;entryDy=0;labelBackgroundColor=none;strokeColor=#182E3E;fontColor=default;" edge="1" parent="1" source="RYXvHmkfxahkaSeMc-fz-1" target="RYXvHmkfxahkaSeMc-fz-16">
          <mxGeometry relative="1" as="geometry">
            <mxPoint x="620" y="300" as="targetPoint" />
          </mxGeometry>
        </mxCell>
        <mxCell id="RYXvHmkfxahkaSeMc-fz-1" value="Reinforcement Learning" style="rounded=0;whiteSpace=wrap;html=1;labelBackgroundColor=none;fillColor=#56517E;strokeColor=#EEEEEE;fontColor=#FFFFFF;" vertex="1" parent="1">
          <mxGeometry x="560" y="180" width="120" height="60" as="geometry" />
        </mxCell>
        <mxCell id="RYXvHmkfxahkaSeMc-fz-7" style="edgeStyle=orthogonalEdgeStyle;rounded=0;orthogonalLoop=1;jettySize=auto;html=1;entryX=0.5;entryY=0;entryDx=0;entryDy=0;exitX=0.5;exitY=1;exitDx=0;exitDy=0;labelBackgroundColor=none;strokeColor=#182E3E;fontColor=default;" edge="1" parent="1" source="RYXvHmkfxahkaSeMc-fz-4" target="RYXvHmkfxahkaSeMc-fz-6">
          <mxGeometry relative="1" as="geometry">
            <Array as="points">
              <mxPoint x="430" y="160" />
              <mxPoint x="240" y="160" />
            </Array>
          </mxGeometry>
        </mxCell>
        <mxCell id="RYXvHmkfxahkaSeMc-fz-8" style="edgeStyle=orthogonalEdgeStyle;rounded=0;orthogonalLoop=1;jettySize=auto;html=1;entryX=0.5;entryY=0;entryDx=0;entryDy=0;labelBackgroundColor=none;strokeColor=#182E3E;fontColor=default;" edge="1" parent="1" source="RYXvHmkfxahkaSeMc-fz-4" target="RYXvHmkfxahkaSeMc-fz-5">
          <mxGeometry relative="1" as="geometry" />
        </mxCell>
        <mxCell id="RYXvHmkfxahkaSeMc-fz-9" style="edgeStyle=orthogonalEdgeStyle;rounded=0;orthogonalLoop=1;jettySize=auto;html=1;entryX=0.5;entryY=0;entryDx=0;entryDy=0;labelBackgroundColor=none;strokeColor=#182E3E;fontColor=default;" edge="1" parent="1" target="RYXvHmkfxahkaSeMc-fz-1">
          <mxGeometry relative="1" as="geometry">
            <mxPoint x="440" y="140" as="sourcePoint" />
            <Array as="points">
              <mxPoint x="430" y="140" />
              <mxPoint x="430" y="160" />
              <mxPoint x="620" y="160" />
            </Array>
          </mxGeometry>
        </mxCell>
        <mxCell id="RYXvHmkfxahkaSeMc-fz-4" value="Machine Learning" style="rounded=0;whiteSpace=wrap;html=1;labelBackgroundColor=none;fillColor=#56517E;strokeColor=#EEEEEE;fontColor=#FFFFFF;" vertex="1" parent="1">
          <mxGeometry x="370" y="80" width="120" height="60" as="geometry" />
        </mxCell>
        <mxCell id="RYXvHmkfxahkaSeMc-fz-13" value="" style="edgeStyle=orthogonalEdgeStyle;rounded=0;orthogonalLoop=1;jettySize=auto;html=1;labelBackgroundColor=none;strokeColor=#182E3E;fontColor=default;" edge="1" parent="1" source="RYXvHmkfxahkaSeMc-fz-5" target="RYXvHmkfxahkaSeMc-fz-12">
          <mxGeometry relative="1" as="geometry" />
        </mxCell>
        <mxCell id="RYXvHmkfxahkaSeMc-fz-5" value="Supervised Learning" style="rounded=0;whiteSpace=wrap;html=1;labelBackgroundColor=none;fillColor=#56517E;strokeColor=#EEEEEE;fontColor=#FFFFFF;" vertex="1" parent="1">
          <mxGeometry x="370" y="180" width="120" height="60" as="geometry" />
        </mxCell>
        <mxCell id="RYXvHmkfxahkaSeMc-fz-15" value="" style="edgeStyle=orthogonalEdgeStyle;rounded=0;orthogonalLoop=1;jettySize=auto;html=1;labelBackgroundColor=none;strokeColor=#182E3E;fontColor=default;" edge="1" parent="1" source="RYXvHmkfxahkaSeMc-fz-6" target="RYXvHmkfxahkaSeMc-fz-14">
          <mxGeometry relative="1" as="geometry" />
        </mxCell>
        <mxCell id="RYXvHmkfxahkaSeMc-fz-6" value="Unsupervised Learning" style="rounded=0;whiteSpace=wrap;html=1;labelBackgroundColor=none;fillColor=#56517E;strokeColor=#EEEEEE;fontColor=#FFFFFF;" vertex="1" parent="1">
          <mxGeometry x="180" y="180" width="120" height="60" as="geometry" />
        </mxCell>
        <mxCell id="RYXvHmkfxahkaSeMc-fz-30" value="" style="edgeStyle=orthogonalEdgeStyle;rounded=0;orthogonalLoop=1;jettySize=auto;html=1;labelBackgroundColor=none;strokeColor=#182E3E;fontColor=default;" edge="1" parent="1" source="RYXvHmkfxahkaSeMc-fz-12" target="RYXvHmkfxahkaSeMc-fz-26">
          <mxGeometry relative="1" as="geometry">
            <Array as="points">
              <mxPoint x="430" y="350" />
              <mxPoint x="385" y="350" />
            </Array>
          </mxGeometry>
        </mxCell>
        <mxCell id="RYXvHmkfxahkaSeMc-fz-34" style="edgeStyle=orthogonalEdgeStyle;rounded=0;orthogonalLoop=1;jettySize=auto;html=1;entryX=0.5;entryY=0;entryDx=0;entryDy=0;labelBackgroundColor=none;strokeColor=#182E3E;fontColor=default;" edge="1" parent="1" source="RYXvHmkfxahkaSeMc-fz-12" target="RYXvHmkfxahkaSeMc-fz-31">
          <mxGeometry relative="1" as="geometry">
            <Array as="points">
              <mxPoint x="430" y="350" />
              <mxPoint x="470" y="350" />
            </Array>
          </mxGeometry>
        </mxCell>
        <mxCell id="RYXvHmkfxahkaSeMc-fz-12" value="Labelled data can trained" style="rounded=0;whiteSpace=wrap;html=1;labelBackgroundColor=none;fillColor=#56517E;strokeColor=#EEEEEE;fontColor=#FFFFFF;" vertex="1" parent="1">
          <mxGeometry x="370" y="260" width="120" height="60" as="geometry" />
        </mxCell>
        <mxCell id="RYXvHmkfxahkaSeMc-fz-41" style="edgeStyle=orthogonalEdgeStyle;rounded=0;orthogonalLoop=1;jettySize=auto;html=1;exitX=0.5;exitY=1;exitDx=0;exitDy=0;entryX=0.5;entryY=0;entryDx=0;entryDy=0;labelBackgroundColor=none;strokeColor=#182E3E;fontColor=default;" edge="1" parent="1" source="RYXvHmkfxahkaSeMc-fz-14" target="RYXvHmkfxahkaSeMc-fz-40">
          <mxGeometry relative="1" as="geometry" />
        </mxCell>
        <mxCell id="RYXvHmkfxahkaSeMc-fz-14" value="Unlabelled data and find pattern" style="whiteSpace=wrap;html=1;rounded=0;labelBackgroundColor=none;fillColor=#56517E;strokeColor=#EEEEEE;fontColor=#FFFFFF;" vertex="1" parent="1">
          <mxGeometry x="180" y="270" width="120" height="60" as="geometry" />
        </mxCell>
        <mxCell id="RYXvHmkfxahkaSeMc-fz-56" style="edgeStyle=orthogonalEdgeStyle;rounded=0;orthogonalLoop=1;jettySize=auto;html=1;entryX=0.5;entryY=0;entryDx=0;entryDy=0;strokeColor=#182E3E;" edge="1" parent="1" source="RYXvHmkfxahkaSeMc-fz-16" target="RYXvHmkfxahkaSeMc-fz-17">
          <mxGeometry relative="1" as="geometry">
            <Array as="points">
              <mxPoint x="620" y="400" />
              <mxPoint x="693" y="400" />
            </Array>
          </mxGeometry>
        </mxCell>
        <mxCell id="RYXvHmkfxahkaSeMc-fz-16" value="State, Agent, Action, Reward, Environment" style="rounded=0;whiteSpace=wrap;html=1;labelBackgroundColor=none;fillColor=#56517E;strokeColor=#EEEEEE;fontColor=#FFFFFF;" vertex="1" parent="1">
          <mxGeometry x="560" y="260" width="120" height="60" as="geometry" />
        </mxCell>
        <mxCell id="RYXvHmkfxahkaSeMc-fz-55" style="edgeStyle=orthogonalEdgeStyle;rounded=0;orthogonalLoop=1;jettySize=auto;html=1;entryX=0.5;entryY=0;entryDx=0;entryDy=0;strokeColor=#182E3E;" edge="1" parent="1" source="RYXvHmkfxahkaSeMc-fz-26" target="RYXvHmkfxahkaSeMc-fz-49">
          <mxGeometry relative="1" as="geometry" />
        </mxCell>
        <mxCell id="RYXvHmkfxahkaSeMc-fz-26" value="Regression" style="whiteSpace=wrap;html=1;rounded=0;labelBackgroundColor=none;fillColor=#56517E;strokeColor=#EEEEEE;fontColor=#FFFFFF;" vertex="1" parent="1">
          <mxGeometry x="350" y="360" width="70" height="20" as="geometry" />
        </mxCell>
        <mxCell id="RYXvHmkfxahkaSeMc-fz-38" style="edgeStyle=orthogonalEdgeStyle;rounded=0;orthogonalLoop=1;jettySize=auto;html=1;labelBackgroundColor=none;strokeColor=#182E3E;fontColor=default;entryX=0.5;entryY=0;entryDx=0;entryDy=0;" edge="1" parent="1" source="RYXvHmkfxahkaSeMc-fz-31" target="RYXvHmkfxahkaSeMc-fz-50">
          <mxGeometry relative="1" as="geometry">
            <mxPoint x="495" y="420" as="targetPoint" />
            <Array as="points">
              <mxPoint x="470" y="400" />
              <mxPoint x="495" y="400" />
            </Array>
          </mxGeometry>
        </mxCell>
        <mxCell id="RYXvHmkfxahkaSeMc-fz-31" value="Classification" style="whiteSpace=wrap;html=1;rounded=0;labelBackgroundColor=none;fillColor=#56517E;strokeColor=#EEEEEE;fontColor=#FFFFFF;" vertex="1" parent="1">
          <mxGeometry x="430" y="360" width="80" height="20" as="geometry" />
        </mxCell>
        <mxCell id="RYXvHmkfxahkaSeMc-fz-40" value="&lt;ul&gt;&lt;li&gt;K- means clustering&lt;/li&gt;&lt;li&gt;Mean shift clustering&lt;/li&gt;&lt;li&gt;DBSCAN Clustering&amp;nbsp;&lt;/li&gt;&lt;li&gt;Agglomerative hierarchical clustering&lt;/li&gt;&lt;li&gt;Gaussian mixture&lt;/li&gt;&lt;/ul&gt;" style="whiteSpace=wrap;html=1;rounded=0;align=left;labelBackgroundColor=none;fillColor=#56517E;strokeColor=#EEEEEE;fontColor=#FFFFFF;" vertex="1" parent="1">
          <mxGeometry x="100" y="414" width="150" height="150" as="geometry" />
        </mxCell>
        <mxCell id="RYXvHmkfxahkaSeMc-fz-48" value="" style="group;labelBackgroundColor=none;fontColor=#FFFFFF;" vertex="1" connectable="0" parent="1">
          <mxGeometry x="584.5" y="414" width="253" height="150" as="geometry" />
        </mxCell>
        <mxCell id="RYXvHmkfxahkaSeMc-fz-49" value="&lt;ul&gt;&lt;li&gt;Linear Regression&lt;/li&gt;&lt;li&gt;Neural Network regression&lt;/li&gt;&lt;li&gt;Support Vector regression&lt;/li&gt;&lt;li&gt;Decision Tress Regression&lt;/li&gt;&lt;li&gt;Lasso Regression&lt;/li&gt;&lt;li&gt;Ridge Regression&lt;/li&gt;&lt;/ul&gt;" style="whiteSpace=wrap;html=1;rounded=0;align=left;labelBackgroundColor=none;fillColor=#56517E;strokeColor=#EEEEEE;fontColor=#FFFFFF;" vertex="1" parent="RYXvHmkfxahkaSeMc-fz-48">
          <mxGeometry x="-327" width="150" height="150" as="geometry" />
        </mxCell>
        <mxCell id="RYXvHmkfxahkaSeMc-fz-51" value="" style="group;labelBackgroundColor=none;fontColor=#FFFFFF;" vertex="1" connectable="0" parent="RYXvHmkfxahkaSeMc-fz-48">
          <mxGeometry x="-7" width="250" height="150" as="geometry" />
        </mxCell>
        <mxCell id="RYXvHmkfxahkaSeMc-fz-17" value="" style="rounded=0;whiteSpace=wrap;html=1;labelBackgroundColor=none;fillColor=#56517E;strokeColor=#EEEEEE;fontColor=#FFFFFF;" vertex="1" parent="RYXvHmkfxahkaSeMc-fz-51">
          <mxGeometry width="230" height="150" as="geometry" />
        </mxCell>
        <mxCell id="RYXvHmkfxahkaSeMc-fz-25" value="" style="shape=image;imageAspect=0;aspect=fixed;verticalLabelPosition=bottom;verticalAlign=top;image=https://www.mdpi.com/applsci/applsci-12-12377/article_deploy/html/images/applsci-12-12377-g001.png;labelBackgroundColor=none;fillColor=#56517E;strokeColor=#EEEEEE;fontColor=#FFFFFF;" vertex="1" parent="RYXvHmkfxahkaSeMc-fz-51">
          <mxGeometry x="19.05" y="10" width="194.26" height="130" as="geometry" />
        </mxCell>
        <mxCell id="RYXvHmkfxahkaSeMc-fz-50" value="&lt;ul&gt;&lt;li&gt;Naives bayes Classifier&lt;/li&gt;&lt;li&gt;Decision Tree&amp;nbsp;&lt;/li&gt;&lt;li&gt;Support Vector machine&lt;/li&gt;&lt;li&gt;Random Forest&amp;nbsp;&lt;/li&gt;&lt;li&gt;K- nearest neighbors&amp;nbsp;&lt;/li&gt;&lt;/ul&gt;" style="whiteSpace=wrap;html=1;rounded=0;align=left;labelBackgroundColor=none;fillColor=#56517E;strokeColor=#EEEEEE;fontColor=#FFFFFF;" vertex="1" parent="1">
          <mxGeometry x="420" y="414" width="150" height="150" as="geometry" />
        </mxCell>
      </root>
    </mxGraphModel>
  </diagram>
</mxfile>
